<svg id="Layer_1" data-name="Layer 1" xmlns="http://www.w3.org/2000/svg" viewBox="0 0 47.69 47.69"><defs><style>.cls-1{fill:#434343;}.cls-1,.cls-10{stroke:#231f20;stroke-miterlimit:10;}.cls-2{fill:#fff;}.cls-10,.cls-3{fill:#e260a3;}.cls-4{fill:#e77459;}.cls-5{fill:#231f20;}.cls-6{fill:#c0614a;}.cls-7{fill:#004f90;}.cls-8{fill:#2e2c6d;}.cls-9{fill:#1e1e1e;}.cls-10{stroke-width:0.5px;}.cls-11{fill:#2c2b7e;}</style></defs><title>Brain</title><rect class="cls-1" x="0.5" y="0.5" width="46.69" height="46.69" rx="12"/><path class="cls-2" d="M72.84,243.15a1.13,1.13,0,0,1-.41.11.76.76,0,0,0-.18,1.37c.32.21.22.59.38.89a1,1,0,0,0,.68.5c.84.17,1.08-.58,1.55-1.08a5,5,0,0,0,1.36-1.63,1.79,1.79,0,0,0-.44-1.91c-1-1.05-2.88-.22-3.23,1.11-.17.63,0,1.52.68,1.72s1.36-.66,1.82-1.19c.62-.73-.43-1.8-1.06-1.06-.24.27-.52.75-.86.9l.57-.07-.15-.05.45.35c-.26-.46.93-1.07.82-.31-.07.43-.83.86-1.1,1.16a1.84,1.84,0,0,0-.38.5c-.26.33,0,.44.63.35a1.89,1.89,0,0,0-.08-.4,1.94,1.94,0,0,0-.88-1.07l-.18,1.37a2.93,2.93,0,0,0,.77-.27c.87-.41.11-1.71-.76-1.29Z" transform="translate(-65.75 -229.69)"/><path class="cls-3" d="M92.47,267.42c1.35-.52,1.58-2.17,1.44-3.46a1.28,1.28,0,0,0-1.25-1.25A1.26,1.26,0,0,0,91.41,264a3.61,3.61,0,0,1,0,.93c0,.12-.06.25-.08.37s-.11.13,0,0l.55-.32-.11,0a1.29,1.29,0,0,0-.87,1.54,1.25,1.25,0,0,0,1.54.87Z" transform="translate(-65.75 -229.69)"/><path class="cls-4" d="M92.89,268.53A21.46,21.46,0,0,1,94.6,266a12.44,12.44,0,0,0,1.16-2.61c.54-1.52-1.87-2.18-2.41-.67a8.58,8.58,0,0,1-1.11,2.3,14,14,0,0,0-1.51,2.24c-.69,1.44,1.47,2.71,2.16,1.26Z" transform="translate(-65.75 -229.69)"/><path class="cls-4" d="M91.72,263a3.35,3.35,0,0,1,.08,2.45A18.06,18.06,0,0,1,90,268c-1,1.27,1.2,2.52,2.16,1.26a12.1,12.1,0,0,0,2.2-3.28,6.69,6.69,0,0,0-.24-3.57,1.25,1.25,0,0,0-2.41.67Z" transform="translate(-65.75 -229.69)"/><path class="cls-3" d="M96.27,258.69a1.25,1.25,0,0,0,0-2.5,1.25,1.25,0,0,0,0,2.5Z" transform="translate(-65.75 -229.69)"/><path class="cls-4" d="M98.19,256.65c.27.8,1.21,3.11.5,3.73,0,0-1.18-.08-1.46-.11a1.85,1.85,0,0,1-1.47-.89c-1.71-2.72-6-.21-4.31,2.52A6.76,6.76,0,0,0,95.54,265a8.25,8.25,0,0,0,5.55-.27c3.49-1.89,3-6.28,1.93-9.43s-5.86-1.73-4.83,1.33Z" transform="translate(-65.75 -229.69)"/><ellipse class="cls-4" cx="27.85" cy="23.9" rx="14.3" ry="9.81"/><ellipse class="cls-4" cx="20.53" cy="27.81" rx="8.94" ry="10.24"/><path class="cls-5" d="M74,245.41c-.43.22-1.14.57-1.5-.13-.06-.12,0-.29-.07-.42-.23-.49-.68-.24-.52-1s.33-.37.67-.74a1.41,1.41,0,0,0,.29-.75c.15-.73.57-.92,1.28-1l.49-.13a3.53,3.53,0,0,1,1,.23c.23.27.08.88.35,1.21a.85.85,0,0,0,.67.35c.32.05.45-.43.13-.48-.82-.13-.48-1.46-1.08-1.88s-1.15.13-1.73.22-1-.08-1.33.4a1.66,1.66,0,0,0-.24.72c-.1.54-.22.65-.69,1-.31.23-.57.28-.63.74s.34.73.63,1.14.19,1.06.83,1.3a2.29,2.29,0,0,0,1.7-.35c.28-.14,0-.58-.26-.43Z" transform="translate(-65.75 -229.69)"/><path class="cls-6" d="M90.41,259.8a2.85,2.85,0,0,0,3.68-1.38c.15-.29-.28-.54-.43-.25a2.36,2.36,0,0,1-3.12,1.15c-.3-.12-.43.36-.13.48Z" transform="translate(-65.75 -229.69)"/><path class="cls-6" d="M91.39,254.3a7.73,7.73,0,0,0,3.29-.82,2.75,2.75,0,0,0,1.12-2.28.25.25,0,0,0-.5,0c0,2.27-2.35,2.35-4,2.62-.32.05-.18.54.13.48Z" transform="translate(-65.75 -229.69)"/><path class="cls-6" d="M83.73,258.4a3.1,3.1,0,0,0,2.47.66,5.55,5.55,0,0,0,2.17-1.5.25.25,0,0,0-.36-.35,6.65,6.65,0,0,1-1.57,1.21A2.42,2.42,0,0,1,84,258c-.27-.17-.52.26-.25.43Z" transform="translate(-65.75 -229.69)"/><path class="cls-7" d="M77.29,253.92c-.56-.2-.69-.92-.83-1.43l-1.25.73-.07-.3h1.45l-.46-2a.76.76,0,0,0-1.45,0c-.19.86-.41,1.72-.66,2.56a.75.75,0,0,0,1.45.4c.25-.85.47-1.7.66-2.56H74.68l.46,2a.76.76,0,0,0,1.45,0,1.12,1.12,0,0,0-.32-1.16.75.75,0,0,0-1.25.73,3.12,3.12,0,0,0,1.88,2.48c.91.32,1.3-1.13.39-1.45Z" transform="translate(-65.75 -229.69)"/><path class="cls-7" d="M92.35,246.75l.31-.13-.76-1.3a20.35,20.35,0,0,1-2.16,1.39l1.13.65c-.06.12-.05.13,0,0l.14-.1.49-.34c.31-.2.63-.38,1-.55l-.91-1.18a16.11,16.11,0,0,1-1.5,1.48c-.66.58.19,1.55.91,1.18l.37-.22-1.1-.84a1,1,0,0,1-.37.62c-.71.66.35,1.72,1.06,1.06a2.42,2.42,0,0,0,.75-1.29.75.75,0,0,0-1.1-.84,2.71,2.71,0,0,1-.37.21l.91,1.18a16.11,16.11,0,0,0,1.5-1.48.75.75,0,0,0-.91-1.17,10.55,10.55,0,0,0-1.51.93c-.45.33-.92.71-.86,1.32a.76.76,0,0,0,1.13.65,22.07,22.07,0,0,0,2.16-1.39.75.75,0,0,0-.76-1.3l-.3.13a.75.75,0,0,0,.75,1.3Z" transform="translate(-65.75 -229.69)"/><path class="cls-8" d="M75.44,258.86l.32,0-.26-.65a9.31,9.31,0,0,1-.25-1.14,2.37,2.37,0,0,0-.37-1.13.77.77,0,0,0-1.3,0l-.17.25,1.39.38-.14-3.86c0-1-1.54-1-1.5,0l.14,3.86a.76.76,0,0,0,1.4.38l.18-.25h-1.3c.62.84.51,4.71,2.62,3.5a.75.75,0,0,0-.76-1.3Z" transform="translate(-65.75 -229.69)"/><path class="cls-7" d="M73.81,258.28a6,6,0,0,0,.31.87.75.75,0,0,0,1,.27.76.76,0,0,0,.27-1,3.33,3.33,0,0,1-.16-.51.75.75,0,0,0-1.45.39Z" transform="translate(-65.75 -229.69)"/><path class="cls-8" d="M82.12,248.72a11,11,0,0,1,8.74-1.12.75.75,0,0,0,.4-1.45,12.5,12.5,0,0,0-9.9,1.28.75.75,0,0,0,.76,1.29Z" transform="translate(-65.75 -229.69)"/><path class="cls-8" d="M81.48,252c1.76-1.85,4.23-2,6.63-1.78,1,.09,1-1.41,0-1.5-2.79-.25-5.67.09-7.69,2.22-.66.7.39,1.76,1.06,1.06Z" transform="translate(-65.75 -229.69)"/><path class="cls-8" d="M80.08,249.62a26.1,26.1,0,0,1,4.2-3.5l-1-1a11.28,11.28,0,0,1-1.86,2.43c-.59.57.21,1.69.91,1.17l1.84-1.37-.91-1.18a12.47,12.47,0,0,1-2.66,2.46l.91,1.18A14.45,14.45,0,0,1,84,248l-.91-1.18-2,2.13c-.56.59.18,1.69.91,1.18l2.25-1.59-.91-1.17q-1.36,1.37-2.82,2.64c-.73.64.32,1.65,1.06,1.06l2.89-2.3-1.06-1.06a28.75,28.75,0,0,1-2.34,2.6c-.69.68.37,1.73,1.06,1.06a52.75,52.75,0,0,1,4.06-3.56L85,246.92a23.74,23.74,0,0,1-3.17,3.55c-.71.66.35,1.71,1.07,1.06,1.25-1.14,2.54-2.23,3.89-3.27l-1.06-1.06a26.92,26.92,0,0,1-3.48,3.6l1.06,1.06c1.38-1.28,2.81-2.5,4.29-3.68l-1.06-1.06L81.91,251c-.65.55.2,1.65.91,1.18l4.4-3L86.31,248l-4.78,4,1.06,1.06c1.06-.92,2.16-1.78,3.3-2.6L85,249.34a9,9,0,0,1-2,1.92l.91,1.18A16.38,16.38,0,0,1,87,250.2L86.06,249a50.14,50.14,0,0,1-3.65,3.49c-.64.54.21,1.68.9,1.17l3.11-2.28-.91-1.18A61.68,61.68,0,0,1,81,254.6c-.69.6.18,1.5.9,1.18,1.83-.82,3-2.4,4.5-3.75,1.75-1.63,3.59-3.16,5.43-4.69.68-.57-.19-1.54-.91-1.17l-6,3,.91,1.18q1.53-1.62,3.19-3.1c.63-.55-.21-1.67-.91-1.17a28,28,0,0,1-5.29,3l.85,1.1a17.91,17.91,0,0,1,2.39-2.89c.51-.5,0-1.53-.73-1.26l-1.82.67.85,1.11,1.08-1.31c.7-.69-.33-1.64-1.06-1.06l-1.47,1.16L84,247.66l2.1-2.2c.48-.49,0-1.55-.73-1.25a28.55,28.55,0,0,0-4.17,2.1l1,1,1-1.2c.72-.68-.32-1.65-1.06-1.06a21.82,21.82,0,0,1-2.73,1.85l1,1a5,5,0,0,1,1.32-1.56c.66-.62-.18-1.52-.91-1.18l-2.37,1.08.91,1.18,1.36-1.36c.69-.69-.34-1.68-1.06-1.06a15.94,15.94,0,0,1-2,1.52l.91,1.18.8-1a.76.76,0,0,0-.91-1.18l-1.17.63,1.1.84.21-.7a.75.75,0,0,0-.92-.92l0-1.47c1-.07,1-1.57,0-1.5-4,.3-3.32,5.5.35,4.41l-.93-.92-.21.7a.77.77,0,0,0,1.11.85l1.17-.62-.91-1.18-.8,1c-.49.61.15,1.71.91,1.18s1.52-1.12,2.25-1.75L79.72,245l-1.36,1.36c-.63.63.17,1.51.91,1.17l2.36-1.08-.91-1.18a9.29,9.29,0,0,0-1.55,1.88.75.75,0,0,0,1,1,25,25,0,0,0,3-2.08l-1.06-1.06a5.69,5.69,0,0,0-1.25,1.51.75.75,0,0,0,1,1,26.39,26.39,0,0,1,3.82-1.95L85,244.4l-2.1,2.2c-.68.71.32,1.64,1.06,1.06l1.47-1.16-1.06-1.06a6.38,6.38,0,0,0-1.32,1.61.76.76,0,0,0,.85,1.1l1.82-.67L85,246.22a19.81,19.81,0,0,0-2.63,3.21c-.34.5.24,1.35.85,1.1a29.38,29.38,0,0,0,5.65-3.12L88,246.23q-1.67,1.49-3.19,3.1a.75.75,0,0,0,.91,1.18l6-3-.91-1.18c-1.56,1.3-3.12,2.59-4.62,3.95s-3,3.37-5,4.25l.91,1.18a61.68,61.68,0,0,0,4.49-4.37c.55-.59-.19-1.71-.91-1.18l-3.1,2.29.91,1.18c1.28-1.11,2.49-2.26,3.66-3.49a.75.75,0,0,0-.91-1.18,16.64,16.64,0,0,0-3.42,2.47c-.62.56.22,1.69.91,1.17A14.36,14.36,0,0,0,86,250.4c.52-.6-.17-1.71-.91-1.18-1.25.9-2.44,1.84-3.6,2.84-.74.63.33,1.68,1.06,1.06l4.78-4c.65-.55-.2-1.65-.9-1.18l-4.41,3L83,252l4.61-3.85c.74-.62-.32-1.65-1.06-1.06-1.49,1.18-2.91,2.4-4.29,3.68-.72.67.33,1.69,1.06,1.06a26.92,26.92,0,0,0,3.48-3.6.75.75,0,0,0-1.06-1.06c-1.35,1-2.64,2.12-3.9,3.27l1.07,1.06a26.47,26.47,0,0,0,3.4-3.85c.55-.75-.57-1.39-1.18-.91A52.75,52.75,0,0,0,81,250.33l1.06,1.06a28.75,28.75,0,0,0,2.34-2.6.75.75,0,0,0-1.06-1.06L80.49,250l1.06,1.06q1.45-1.28,2.82-2.64c.58-.59-.2-1.68-.91-1.18l-2.25,1.58.91,1.18,2-2.13a.75.75,0,0,0-.91-1.17,21.94,21.94,0,0,0-2.78,2c-.66.54.2,1.67.9,1.18a14.62,14.62,0,0,0,3-2.69c.5-.6-.17-1.73-.91-1.18l-1.84,1.37.91,1.18a12.3,12.3,0,0,0,2.09-2.73c.36-.62-.38-1.46-1-1A27.92,27.92,0,0,0,79,248.56c-.68.7.38,1.76,1.06,1.06Z" transform="translate(-65.75 -229.69)"/><path class="cls-8" d="M78.38,245.74c0-.57-.29-.67-.92-.3l.92.52a2.52,2.52,0,0,1,1.41-.27l.73,1.26,1-1.12.53,1.28a3.49,3.49,0,0,1,4.27-.68c.8.39.93.88,2,.73l-.85-1.1-1.32,1.49.91,1.18,2.23-1.27-.73-1.25a3.34,3.34,0,0,1-2.29,1.11l.92.93a3.94,3.94,0,0,1,2.23-2.45l-.75-.75.46.36.2-1.48a6.32,6.32,0,0,1-2.85-.63l-.4,1.44,1.72.9.73-1.26a17.06,17.06,0,0,1-2.53-.74l-.4,1.45,1.3.6.58-1.37a40.84,40.84,0,0,1-4.51-1l-.2,1.47,1.45.08.2-1.47c-2.54.13-5.06.15-7.6.07l.37,1.39c5-2.15,10.13-.38,14.82,1.46l-.18-1.37a8,8,0,0,1-3.17,1.16l.58,1.37a5.12,5.12,0,0,1,1.57-1l-.91-1.18-.62.54,1.18.91.46-.6c.4-.52-.26-1.3-.85-1.1l-1.15.39c-.91.31-.52,1.75.4,1.44l1.15-.39-.85-1.1-.46.61c-.55.71.58,1.42,1.18.9l.62-.53c.68-.59-.18-1.54-.9-1.18a5,5,0,0,0-1.58,1,.75.75,0,0,0,.58,1.37,8.8,8.8,0,0,0,3.53-1.32.76.76,0,0,0-.18-1.37c-2.77-1.08-5-2.26-8.06-2.36a18.27,18.27,0,0,0-7.91,1.06c-.73.31-.3,1.37.38,1.4,2.54.08,5.06.06,7.6-.07.8,0,1.08-1.33.2-1.47a7.15,7.15,0,0,0-1.85-.14.76.76,0,0,0-.2,1.48,43.25,43.25,0,0,0,4.51,1,.75.75,0,0,0,.57-1.37,5.27,5.27,0,0,0-1.65-.76c-.93-.3-1.29,1.12-.4,1.45a17.06,17.06,0,0,0,2.53.74.76.76,0,0,0,.73-1.26,3.94,3.94,0,0,0-2.38-1.27.75.75,0,0,0-.4,1.44,9.65,9.65,0,0,0,3.25.69c.91.06.92-1.18.2-1.47-1.17-.48-2.76-.89-3.58.42a1.61,1.61,0,0,0,.13,2c1.08,1.2,4.25.4,4.09-1.36a.76.76,0,0,0-.75-.75c-1.84.11-3,2-3.67,3.55-.25.58.43,1,.92.92a5.3,5.3,0,0,0,3-1.5c.52-.49,0-1.52-.73-1.25A9.23,9.23,0,0,0,86,247.67c-.66.54.19,1.62.91,1.18a4.44,4.44,0,0,0,1.85-2,.76.76,0,0,0-.84-1.11c-1.35.19-2.64.61-3.17,1.93a.75.75,0,0,0,.34.85c1.64.83,4.91-2.45,3.73-4-1.54-2.09-5.06,1.68-5.25,3.25,0,.35.27.6.55.72,1.91.79,4.08-2,3-3.79s-4.25-.81-5,.81a.81.81,0,0,0,.12.91c.89,1.1,2.86.08,3.45-.9a.72.72,0,0,0,0-.75c-1.25-1.74-3.8.2-4.7,1.35a.76.76,0,0,0,.53,1.28A2.67,2.67,0,0,0,84.27,246a.79.79,0,0,0-.12-.9c-1.15-1.48-3.62,0-4.69.84-.59.46,0,1.49.73,1.25,1.14-.4,3.34-2.13,1.41-3.1-1.36-.69-4.91.56-4.66,2.32,0,.43.56.58.92.52,1.19-.17,3-.67,3-2.13a.76.76,0,0,0-.55-.72,3.38,3.38,0,0,0-2.72.42c-.88.39-.12,1.68.75,1.29Z" transform="translate(-65.75 -229.69)"/><path class="cls-8" d="M82,250.51c-.52,1.3-1.15,3.16-2.25,4.13-.61.54-2.09,1.39-1.23-.3a3.63,3.63,0,0,1,.62-.92c.46-.5.43-.53-.09-.07l-.29.49c-1.15.76-1.53.55-1.13-.63.11-.58.63-2.17,1.26-2.25s0,4.62-1.13,4.48l.75.75c.09-1.38.41-5,1.61-5.92.27-.31.28-.41,0-.3a5,5,0,0,1,0,1.72,6.91,6.91,0,0,1-1,2.91h1.3c-.76-1.14-.32-4.83,1.19-5.27l-.94-.72c.2,2.18-2.33,4.91-4,6l1.12.65c.07-.67,2.22-2.1,2.71-2.58a11.85,11.85,0,0,1,3.25-2.41l-1.13-.65c0,1.29-2.39,3.54-3.14,4.4l1.06,1.06a5.21,5.21,0,0,1,3.3-1.94l-.73-1.25a7.81,7.81,0,0,1-3.21,2.26l.84,1.1a6,6,0,0,1,2.24-1.93.75.75,0,0,0-.58-1.37c-1.69.45-3.79,1.54-3.77-1.1a16.11,16.11,0,0,1,1.14-5,.75.75,0,0,0-1.37-.58A31.74,31.74,0,0,0,75.91,252c-.21.8,1,1.37,1.37.58.84-1.75,1.72-3.47,2.67-5.16l-1.4-.38A14.59,14.59,0,0,1,77.33,251c-.38.86.86,1.64,1.29.76a36.62,36.62,0,0,0,1.87-4.6c.28-.86-.9-1.21-1.37-.58a52.86,52.86,0,0,0-3.32,5.09l1.39.38a26.43,26.43,0,0,1,.74-3.6.76.76,0,0,0-1.26-.73,16.11,16.11,0,0,0-1.94,2.56l1.37.58c.41-1.69,1.19-3.6,1.15-5.34a.72.72,0,0,0-.37-.65l-.2-.11a.76.76,0,0,0-.76,0l-.17.11c-.8.53,0,1.83.76,1.3-1.14.76-1,.58-1.29,1.95l-.57,2.34A.75.75,0,0,0,76,251a15.07,15.07,0,0,1,1.71-2.26L76.48,248a30.74,30.74,0,0,0-.79,4c-.1.77,1.06,1,1.4.38a57,57,0,0,1,3.32-5.09L79,246.71A33.84,33.84,0,0,1,77.33,251l1.29.76A17.2,17.2,0,0,0,80.05,247c.1-.76-1.06-1-1.39-.37-1,1.69-1.84,3.4-2.67,5.16l1.37.57A29.61,29.61,0,0,1,79.85,246l-1.37-.58c-.77,2.27-2,5.59-.79,8,1,1.91,3.75.37,5.26,0L82.37,252a7.4,7.4,0,0,0-2.77,2.47c-.33.52.22,1.33.84,1.1a9.3,9.3,0,0,0,3.88-2.65.76.76,0,0,0-.73-1.26,6.51,6.51,0,0,0-4,2.33c-.6.73.43,1.8,1.06,1.06,1.18-1.36,3.59-3.56,3.58-5.46a.75.75,0,0,0-1.12-.64,16.49,16.49,0,0,0-4.28,3.34c-1,.91-2.3,1.53-2.43,2.94a.75.75,0,0,0,1.13.64c2.16-1.36,5-4.54,4.76-7.27a.77.77,0,0,0-1-.73c-2.52.73-3.43,5.48-2.1,7.48a.76.76,0,0,0,1.3,0c.69-1.22,2.62-6.74-.1-7.08s-3.33,6.35-3.43,7.91a.78.78,0,0,0,.75.75c1.94.24,2.8-3.43,2.91-4.81s-.28-3.78-2.23-2.73a5.47,5.47,0,0,0-2.3,5.6c.51,1.87,2.42,1.36,3.46.21.69-.77,2.24-3.51.43-4-1.55-.44-3.09,2.62-3.31,3.7-.36,1.72.75,2.95,2.49,2.1,2.28-1.11,3.36-3.88,4.24-6.07.36-.9-1.09-1.29-1.45-.4Z" transform="translate(-65.75 -229.69)"/><path class="cls-8" d="M78.3,248.83l-.23-1.27-1.44.4.15,1.61h1.45a7.53,7.53,0,0,1,.06-3l-1.37.18c1.41,2.12-2.26,5.54-1.74,8,.25,1.2,1.09,1.51,2.16,1,.89-.44,2.6-2.62,2-3.75-.72-1.32-2.38-.29-3.16.45l1.06,1.06a16.38,16.38,0,0,1,5.44-4l-.92-.92a5.61,5.61,0,0,1-1.14,2.62c-.58.74.34,1.74,1.06,1.06l1.75-1.66-1.06-1.06c-.9,1-1.82,2.05-2.78,3-1.22,1.27-1.55,1.19-2.08-.52-.23-.75-.38-2.49-1.55-2.45-2.82.12-1.78,7.61-1.74,9l1.48-.2-.52-2.14a.76.76,0,0,0-1.48.2v1.16a.75.75,0,0,0,1.5,0v-1.16l-1.47.2.52,2.14a.75.75,0,0,0,1.47-.2c0-1.15-.07-2.29-.09-3.44,0-.3.13-4,.42-3.75a11.77,11.77,0,0,0,.5,2.52,4.56,4.56,0,0,0,.58,1.33c.61.6,1.07.53,1.76.12,1.71-1,3.24-3.29,4.54-4.78a.75.75,0,0,0-1.06-1.06l-1.75,1.66,1.06,1.06A6.93,6.93,0,0,0,83.19,249c.09-.5-.34-1.15-.92-.92a17.85,17.85,0,0,0-6.1,4.38c-.69.68.35,1.72,1.06,1.06-.13.77-.3.76-.52,0a8.62,8.62,0,0,1,.62-1.79c.31-.71.69-1.4.94-2.14a4,4,0,0,0-.06-3.59c-.32-.48-1.25-.5-1.37.18a11.7,11.7,0,0,0-.06,3.78.76.76,0,0,0,1.45,0,5.13,5.13,0,0,0-.16-2.4.75.75,0,0,0-1.44.4l.22,1.27c.17,1,1.61.55,1.45-.4Z" transform="translate(-65.75 -229.69)"/><path class="cls-8" d="M90.38,246.92A7.18,7.18,0,0,0,93,245.43c1.17-.9-.89.43-1.16.63a50.62,50.62,0,0,0-5.38,4.07c-.7.67.36,1.73,1.06,1.06a49.27,49.27,0,0,1,4.57-3.45,16.72,16.72,0,0,1,2.26-1.36,1.77,1.77,0,0,0,1-1,1.53,1.53,0,0,0-1.29-1.81c-1.52-.28-2.72,1.55-4.1,1.9a.75.75,0,0,0,.4,1.45Z" transform="translate(-65.75 -229.69)"/><path class="cls-8" d="M86.72,247.89a79.24,79.24,0,0,1-6.08,5.65l1.06,1.06a8.32,8.32,0,0,1,4.13-2.22l-.93-.92c-.33,1.69-2.54,2.93-3.82,4-1,.82-2.25,1-3,2.15-.55.79.75,1.54,1.29.76s1.62-.95,2.33-1.45,1.56-1.35,2.38-2a5.07,5.07,0,0,0,2.29-3,.76.76,0,0,0-.92-.93,10,10,0,0,0-4.79,2.61c-.71.68.33,1.67,1.06,1.06A79.24,79.24,0,0,0,87.78,249c.67-.69-.39-1.75-1.06-1.06Z" transform="translate(-65.75 -229.69)"/><path class="cls-8" d="M84.6,253.9l1.11-.72-1-.27.21.33a.75.75,0,0,0,1.29,0c.56-1,2-1.36,2.8-2.22a5.76,5.76,0,0,1,1.53-1.33,4.75,4.75,0,0,0,1.32-.9c.67-.7-.39-1.76-1.06-1.06a8.42,8.42,0,0,1-1.65,1,21.14,21.14,0,0,0-1.57,1.57c-.91.79-2,1.05-2.66,2.16h1.29l-.2-.33a.76.76,0,0,0-1-.26l-1.1.71c-.81.52-.06,1.82.75,1.3Z" transform="translate(-65.75 -229.69)"/><path class="cls-8" d="M88.6,250.91a11.26,11.26,0,0,0,2.79-1.51c.86-.61,1.24-1.57,2.17-2.12a.75.75,0,0,0-.76-1.3,7.72,7.72,0,0,0-1.9,1.84,7,7,0,0,1-2.7,1.64c-.91.3-.52,1.74.4,1.45Z" transform="translate(-65.75 -229.69)"/><path class="cls-8" d="M95,245a15.32,15.32,0,0,1,1.91-.23.75.75,0,0,0,.2-1.47c-1-.32-1.67-1-2.71-1.21a20.3,20.3,0,0,0-4-.21.76.76,0,0,0-.37,1.4,20.47,20.47,0,0,0,1.84,1.17.75.75,0,0,0,.75-1.3A21,21,0,0,1,90.78,242l-.38,1.39a14.44,14.44,0,0,1,3.77.21c.91.21,1.62.87,2.51,1.16l.2-1.48a18,18,0,0,0-2.31.28c-.95.18-.55,1.63.4,1.45Z" transform="translate(-65.75 -229.69)"/><path class="cls-8" d="M94.43,242.81c-2.36,1.06-5.22-1.22-7.53-1.76-2.05-.48-3.79.38-5.87.25l.2,1.48a23,23,0,0,1,2.84-.56c1-.13.55-1.58-.39-1.45a22.79,22.79,0,0,0-2.85.56.75.75,0,0,0,.2,1.47,23.27,23.27,0,0,0,3.75-.43,10.59,10.59,0,0,1,5.38,1.49c2,1.13,2.81,1.25,5,.24.88-.39.12-1.69-.76-1.29Z" transform="translate(-65.75 -229.69)"/><path class="cls-8" d="M85.35,242.68a24.56,24.56,0,0,1,3.32.1,23.22,23.22,0,0,0,3.18.54.76.76,0,0,0,.2-1.48,7.59,7.59,0,0,0-2-.31V243a8.31,8.31,0,0,1,2.17.12c.94.19,1.34-1.26.39-1.44a9.52,9.52,0,0,0-2.56-.18.75.75,0,0,0,0,1.5,5.83,5.83,0,0,1,1.61.26l.2-1.47a25.46,25.46,0,0,1-3.18-.54,26.31,26.31,0,0,0-3.32-.1c-1,0-1,1.53,0,1.5Z" transform="translate(-65.75 -229.69)"/><path class="cls-8" d="M91,242.21a.81.81,0,0,1-.66-.63.75.75,0,0,0-1.45.4A2.38,2.38,0,0,0,91,243.71a.76.76,0,0,0,.75-.75.78.78,0,0,0-.75-.75Z" transform="translate(-65.75 -229.69)"/><path class="cls-8" d="M75,259.68a1.83,1.83,0,0,0,2.58.42,5.25,5.25,0,0,0,1.3-1.14c.33-.38.61-.93,1.12-1.09.91-.3.52-1.74-.4-1.45a3.12,3.12,0,0,0-1.5,1.13c-.19.24-1.5,1.82-1.81,1.37-.55-.79-1.85,0-1.29.76Z" transform="translate(-65.75 -229.69)"/><path class="cls-8" d="M78.63,259.12a3.59,3.59,0,0,0,.73-.61c.14-.14.36-.48.58-.51a.78.78,0,0,0,.75-.75c0-.36-.34-.81-.75-.75a2.2,2.2,0,0,0-1.21.52,7.13,7.13,0,0,1-.85.8c-.83.5-.07,1.8.75,1.3Z" transform="translate(-65.75 -229.69)"/><path class="cls-8" d="M93.29,247.28a3.39,3.39,0,0,0,1.77-.86L97,245c.77-.56,0-1.86-.76-1.29l-1.53,1.12c-.36.27-1,.92-1.42,1-1,.08-1,1.58,0,1.5Z" transform="translate(-65.75 -229.69)"/><path class="cls-8" d="M76.94,256.51l-1.31,1.11,1.06,1.06a6.22,6.22,0,0,1,1.56-1.13l-1-1c-.12.24-.79,1.59-1.07,1.49-.47-.18,1.22-2.85-.4-1.35l1.28.53.09-.28-.52-.52-.53,1a.76.76,0,0,0,0,1.3,2.73,2.73,0,0,0,3.26-.43c.65-.53,1.3-.88,2-1.35s1.24-1.61,2.24-1.87a.75.75,0,0,0-.39-1.45c-1.12.29-1.53,1.08-2.36,1.8-.54.48-1.2.66-1.77,1.08s-1.08,1.5-2.2.92v1.3A2.36,2.36,0,0,0,78.05,256a.75.75,0,0,0-.53-.53,1.71,1.71,0,0,0-2,1.73c-.08.69.85.93,1.28.53,2-1.83-1.49-4.45-2-1.39-.15,1-.63,2.79.74,3.23s2.44-1.31,2.93-2.28a.76.76,0,0,0-1-1,7.85,7.85,0,0,0-1.86,1.37c-.7.69.33,1.68,1.06,1.06L78,257.57c.74-.62-.33-1.68-1.06-1.06Z" transform="translate(-65.75 -229.69)"/><path class="cls-8" d="M74.77,253.23a12.49,12.49,0,0,1,.29-1.6c.21-.94-1.24-1.34-1.45-.4l-.19.89,1.47.2c-.09-4.88,4.42-9.1,9-9.12,3.28,0,6.73.6,10,.92v-1.5l-5.07-.18a.76.76,0,0,0-.38,1.4c1.34.94,2.79.57,4.38.85v-1.45a4.74,4.74,0,0,1-2.91.36v1.5l4.19-.27-.64-1.13c-.84,1.4-2.92,2.49-4,3.88l1.29.75c.55-1.2,2.78-2.22,3.17-3.56a.76.76,0,0,0-.92-.93l-.1,0a.75.75,0,0,0,.4,1.44l.1,0-.93-.92c-.26.91-2.48,2-3,3.21a.75.75,0,0,0,1.29.75c1.19-1.57,3-2.22,4-3.88a.75.75,0,0,0-.65-1.12l-4.19.27a.75.75,0,0,0,0,1.5,7.57,7.57,0,0,0,3.31-.41c.64-.21.79-1.31,0-1.45-1.14-.2-3.12-.06-4-.7l-.37,1.4,5.07.18c1,0,.94-1.41,0-1.5-4.5-.44-10.72-2.17-15,.12a11.26,11.26,0,0,0-5.56,9.58c0,.82,1.29,1.05,1.48.2l.19-.89-1.45-.4a12.49,12.49,0,0,0-.29,1.6c-.14.95,1.31,1.35,1.45.4Z" transform="translate(-65.75 -229.69)"/><path class="cls-8" d="M74.56,251.79c-.22-1.33.48-2.11.74-3.34.23-1.08.85-1.89.9-3,0-.83-1.34-1-1.47-.2a1.22,1.22,0,0,1-.36.88l1.29.76a6.6,6.6,0,0,1,2-1.88c.82-.5.07-1.8-.76-1.29a8.27,8.27,0,0,0-2.55,2.41c-.56.8.74,1.54,1.29.76a2.57,2.57,0,0,0,.51-1.24l-1.47-.2c0,.76-.58,1.19-.77,1.86a18.42,18.42,0,0,1-.59,2.05,4.73,4.73,0,0,0-.23,2.86c.16.95,1.6.54,1.45-.4Z" transform="translate(-65.75 -229.69)"/><path class="cls-8" d="M78.5,243.78l.19-.12-.37-1.39q-.34.12,0,.12l.55.72V243l-.22.53.08,0-.58-1.37-.37.19a.76.76,0,0,0,.38,1.4,2.44,2.44,0,0,0,1.9-.64.76.76,0,0,0-.33-1.26c-.24,0-.48-.07-.73-.09l.2,1.48,2.32-.36c.77-.11.66-1.26,0-1.44a2.91,2.91,0,0,0-1.06-.12c-1,.06-1,1.56,0,1.5a1.89,1.89,0,0,1,.67.06v-1.44l-2.33.35c-.88.13-.6,1.42.2,1.47a1.86,1.86,0,0,1,.33,0L79,242a1.07,1.07,0,0,1-.84.2l.38,1.4.37-.2c.78-.4.23-1.55-.58-1.37a1.11,1.11,0,0,0-1,1,.77.77,0,0,0,.55.72c.43.18.79-.06,1.15-.27a.76.76,0,0,0-.38-1.4,1.81,1.81,0,0,0-1.25.56c-.69.68.37,1.74,1.06,1.06Z" transform="translate(-65.75 -229.69)"/><path class="cls-5" d="M97.5,244.35c5.14.64,9.81,4.69,10.3,10,0,.32.53.32.5,0-.54-5.81-5.19-9.79-10.8-10.49-.32,0-.31.46,0,.5Z" transform="translate(-65.75 -229.69)"/><path class="cls-5" d="M103.68,261a14.81,14.81,0,0,0,3-2.85,5.93,5.93,0,0,0,1.62-3.77c0-.32-.47-.32-.5,0a5.66,5.66,0,0,1-1.65,3.59,15,15,0,0,1-2.68,2.6c-.26.18,0,.62.25.43Z" transform="translate(-65.75 -229.69)"/><path class="cls-6" d="M98.21,256.09a2.52,2.52,0,0,0,3-1.52c.12-.3-.37-.43-.48-.13a2,2,0,0,1-2.36,1.17c-.31-.08-.45.4-.14.48Z" transform="translate(-65.75 -229.69)"/><path class="cls-6" d="M100.57,247.9c.43,1.2.68,3.4-.68,4.14-.28.15,0,.58.25.43,1.57-.85,1.43-3.28.91-4.71-.11-.3-.59-.17-.48.14Z" transform="translate(-65.75 -229.69)"/><path class="cls-6" d="M105,256.53c.51-1.52,1.6-2.33,1.4-4.07a8.53,8.53,0,0,0-1.82-3.75c-.18-.26-.62,0-.43.26a7.41,7.41,0,0,1,1.79,4c0,1.37-1,2.21-1.43,3.42-.1.31.38.44.49.14Z" transform="translate(-65.75 -229.69)"/><path class="cls-5" d="M89.72,269a1.32,1.32,0,0,0,1,1.18c.77.17,1.23-.33,1.69-.85.3-.35.69-.59,1-.92a6.27,6.27,0,0,0,.67-1,8.75,8.75,0,0,0,1.7-2.7.25.25,0,0,0-.48-.14,10.85,10.85,0,0,1-1.89,3,9.56,9.56,0,0,1-1.19,1.19,5,5,0,0,1-.35.43c-.2.34-.51.36-.92.07-.53.13-.79,0-.76-.4s-.53-.18-.48.14Z" transform="translate(-65.75 -229.69)"/><path class="cls-4" d="M90.84,268.73l-.24,0a.25.25,0,0,0-.12.46,1.1,1.1,0,0,0,1.36-.13c.24-.21-.11-.56-.35-.35a.6.6,0,0,1-.76,0l-.13.47.38,0c.31,0,.18-.54-.14-.48Z" transform="translate(-65.75 -229.69)"/><path class="cls-5" d="M95.42,265a6.9,6.9,0,0,0,5.94-.33,4.89,4.89,0,0,0,1.63-1.55c.54-.7.49-1.39.9-2.17.15-.28-.29-.53-.44-.25-.27.53-.31,1.09-.59,1.61a5.27,5.27,0,0,1-1.84,1.94,6.3,6.3,0,0,1-5.46.27c-.31-.12-.44.37-.14.48Z" transform="translate(-65.75 -229.69)"/><path class="cls-5" d="M81.6,266.6a6.65,6.65,0,0,0,3.9,1.31,8.92,8.92,0,0,0,2.68-.12c1-.28,1.81-1.07,2.86-1.35a.25.25,0,0,0-.13-.48c-1.63.43-2.6,1.43-4.42,1.46A7.27,7.27,0,0,1,82,266.25c-.25-.21-.6.14-.35.35Z" transform="translate(-65.75 -229.69)"/><path class="cls-5" d="M77.2,260.11a12.14,12.14,0,0,0,1.79,4,7.62,7.62,0,0,0,3,2.73c.29.12.55-.31.25-.44-2.62-1.12-3.81-3.87-4.6-6.4-.1-.31-.58-.18-.48.13Z" transform="translate(-65.75 -229.69)"/><path class="cls-9" d="M89.89,268.59c-.14-.08-.12-.31,0-.44s.26-.2.36-.33a3.54,3.54,0,0,0,.26-.47c.07-.12.18-.2.25-.31a1.45,1.45,0,0,0,.11-1" transform="translate(-65.75 -229.69)"/><path class="cls-5" d="M90.07,268.41s.79-1.11.85-1.2a1.55,1.55,0,0,0,.18-1.16c0-.31-.54-.32-.5,0a1.22,1.22,0,0,1-.21,1,4,4,0,0,1-.51.75c-.27.26-.52.64-.17.95s.6-.13.36-.35Z" transform="translate(-65.75 -229.69)"/><path class="cls-6" d="M96.24,262.84a4,4,0,0,0,3.23.08,5.69,5.69,0,0,0,2.28-2.33c.18-.27-.25-.52-.43-.26a5.71,5.71,0,0,1-1.78,2,3.52,3.52,0,0,1-3,.08c-.29-.15-.54.28-.26.43Z" transform="translate(-65.75 -229.69)"/><path class="cls-6" d="M80.88,262.41c.94,2.21,3.94,2.77,6,2.2a.25.25,0,0,0-.13-.48c-1.89.51-4.61,0-5.46-2-.12-.29-.56,0-.43.25Z" transform="translate(-65.75 -229.69)"/><path class="cls-5" d="M97.71,243.93c-1.82-2.37-6.68-2.79-9.39-3.1-3.64-.42-7.58-.36-10.9,1.3-.29.15,0,.58.25.44,2.87-1.44,6.16-1.55,9.32-1.34,2.45.16,8.63.78,10.28,3,.2.25.63,0,.44-.25Z" transform="translate(-65.75 -229.69)"/><path class="cls-5" d="M74.9,260c-2.67-3.12-1.94-15.49,2.47-17.18.3-.11.17-.59-.13-.48-4.92,1.88-5.71,14.48-2.7,18,.21.24.57-.11.36-.36Z" transform="translate(-65.75 -229.69)"/><path class="cls-5" d="M77.31,259.9c-.45.07-2.33.55-2.38-.14,0-.32-.52-.33-.5,0,.09,1.39,2.19.74,3,.63.32-.05.18-.53-.13-.49Z" transform="translate(-65.75 -229.69)"/><line class="cls-10" x1="11.68" y1="30.35" x2="31.78" y2="14.49"/><path class="cls-11" d="M77.06,244.94c-2.29,3.49-2.56,7.8-1.71,11.86.07.31.55.18.48-.14-.81-3.87-.52-8.13,1.66-11.47.18-.27-.25-.52-.43-.25Z" transform="translate(-65.75 -229.69)"/><path class="cls-11" d="M79.64,246.9c-.91.62-1.12,2.22-1.36,3.22a19.62,19.62,0,0,0-.46,5c0,.32.51.32.5,0a19,19,0,0,1,.28-4.06c.17-.91.48-3.19,1.29-3.74.26-.18,0-.62-.25-.43Z" transform="translate(-65.75 -229.69)"/><path class="cls-11" d="M80.22,244.52c3.18-2,9.11-1.6,12.67-.94.31.06.45-.42.13-.48a28.09,28.09,0,0,0-7.44-.26c-1.94.15-3.92.2-5.62,1.25a.25.25,0,0,0,.26.43Z" transform="translate(-65.75 -229.69)"/><path class="cls-11" d="M82.2,247.85c2.16-.84,5-.15,7.09.57.3.1.43-.38.13-.48-2.18-.75-5.12-1.44-7.35-.57-.3.11-.17.6.13.48Z" transform="translate(-65.75 -229.69)"/><path class="cls-11" d="M80.16,256a6.42,6.42,0,0,1,.57-2.64c.39-.69.92-1.26,1.29-2,.14-.29-.29-.54-.44-.25-.4.79-1.14,1.44-1.46,2.25a8.58,8.58,0,0,0-.46,2.61c0,.33.48.32.5,0Z" transform="translate(-65.75 -229.69)"/><path class="cls-11" d="M89.24,245.55a12.31,12.31,0,0,1,4.32.29c.31.09.44-.4.13-.49a12.81,12.81,0,0,0-4.45-.3c-.32,0-.32.52,0,.5Z" transform="translate(-65.75 -229.69)"/><path class="cls-8" d="M75.64,251.41v1.15h.5v-.31a.25.25,0,0,0-.5,0v.31a.25.25,0,0,0,.5,0v-1.15a.25.25,0,0,0-.5,0Z" transform="translate(-65.75 -229.69)"/><path class="cls-8" d="M75.35,259.4a.68.68,0,0,0-.15-.45.26.26,0,0,0-.39-.05l.08.16a.25.25,0,0,0-.49-.13c-.12.54.44.58.77.33l-.4-.05.08.19a.25.25,0,0,0,.5,0Z" transform="translate(-65.75 -229.69)"/></svg>